# xmcd
#
# Track frame offsets:
#	150
#	28399
#	46168
#	63976
#	81785
#	105554
#	131891
#	148776
#	173310
#	202888
#
# Disc length: 3078 seconds
#
# Revision: 0
# Processed by: cddbd v1.5.2PL0 Copyright (c) Steve Scherf et al.
# Submitted via: EasyCDDAExtractor 10.0.3.1
#
DISCID=840c040a
DTITLE=Counting Crows - (1998) VH1 Storytellers
DYEAR=1998
DGENRE=
TTITLE0=Round Here
TTITLE1=Have You Seen Me Lately?
TTITLE2=Angels Of The Silences
TTITLE3=Catapult
TTITLE4=Mr. Jones
TTITLE5=Rain King
TTITLE6=Mercury
TTITLE7=Ghost Train
TTITLE8=Anna Begins
TTITLE9=Chelsea
EXTD=
EXTT0=
EXTT1=
EXTT2=
EXTT3=
EXTT4=
EXTT5=
EXTT6=
EXTT7=
EXTT8=
EXTT9=
PLAYORDER=
